<?xml version="1.0" encoding="UTF-8" standalone="no"?>
<!-- Created with Inkscape (http://www.inkscape.org/) -->

<svg
   width="512"
   height="512"
   viewBox="0 0 512 512"
   version="1.1"
   id="svg1"
   xmlns="http://www.w3.org/2000/svg"
   xmlns:svg="http://www.w3.org/2000/svg">
  <defs
     id="defs1" />
  <g
     id="layer2">
    <g
       id="g2"
       transform="matrix(0.93822394,0,0,0.93822394,15.814671,0.64767396)">
      <circle
         style="fill:#e2c647;fill-opacity:1;stroke-width:1.026"
         id="path1"
         r="206.88863"
         cy="217.37285"
         cx="256" />
      <ellipse
         style="fill:#ceab10;fill-opacity:1;stroke:none;stroke-width:0.0547605;stroke-dasharray:none;stroke-opacity:1"
         id="path2"
         cx="189.41493"
         cy="81.776917"
         rx="43.334778"
         ry="33.549507" />
      <ellipse
         style="fill:#ceab10;fill-opacity:1;stroke:none;stroke-width:0.0412355;stroke-dasharray:none;stroke-opacity:1"
         id="path2-3"
         cx="266.70325"
         cy="137.71797"
         rx="31.452663"
         ry="26.210552" />
      <ellipse
         style="fill:#ceab10;fill-opacity:1;stroke:none;stroke-width:0.0484251;stroke-dasharray:none;stroke-opacity:1"
         id="path2-3-1"
         cx="352.40424"
         cy="94.898979"
         rx="37.393723"
         ry="30.404242" />
      <ellipse
         style="fill:#ceab10;fill-opacity:1;stroke:none;stroke-width:0.0437678;stroke-dasharray:none;stroke-opacity:1"
         id="path2-3-1-9"
         cx="366.80515"
         cy="202.78554"
         rx="30.546885"
         ry="30.404242" />
      <ellipse
         style="fill:#b99a14;fill-opacity:1;stroke:none;stroke-width:0.0547605;stroke-dasharray:none;stroke-opacity:1"
         id="path2-9"
         cx="187.28697"
         cy="85.30101"
         rx="43.334778"
         ry="33.549507" />
      <ellipse
         style="fill:#b99a14;fill-opacity:1;stroke:none;stroke-width:0.0412355;stroke-dasharray:none;stroke-opacity:1"
         id="path2-3-3"
         cx="264.57529"
         cy="139.86958"
         rx="31.452663"
         ry="26.210552" />
      <ellipse
         style="fill:#b99a14;fill-opacity:1;stroke:none;stroke-width:0.0484251;stroke-dasharray:none;stroke-opacity:1"
         id="path2-3-1-6"
         cx="351.19125"
         cy="97.965569"
         rx="37.393723"
         ry="30.404242" />
      <ellipse
         style="fill:#b99a14;fill-opacity:1;stroke:none;stroke-width:0.0437678;stroke-dasharray:none;stroke-opacity:1"
         id="path2-3-1-9-0"
         cx="365.13467"
         cy="204.93713"
         rx="30.546885"
         ry="30.404242" />
    </g>
  </g>
  <g
     id="layer1">
    <g
       id="g1"
       transform="translate(-385.87637,126.28137)"
       style="display:inline">
      <path
         style="fill:#2b2b2b;fill-opacity:1;stroke-width:1.15728"
         d="m 567.98469,25.02566 c 0,0 20.58251,1.17614 47.63382,15.28987 l 42.92924,-72.920909 14.7018,99.972219 27.0513,23.52288 c 0,0 7.05687,5.29264 8.23301,15.87793 1.17615,10.5853 -2.35228,28.22745 19.99444,41.16504 44.43665,16.98566 84.46452,40.70129 124.67124,64.6879 5.08941,3.03624 9.99722,5.29265 14.70179,9.99722 4.70458,4.70458 10.39729,16.12378 -5.86201,25.91093 -16.25931,9.78716 -39.4293,23.21951 -39.4293,23.21951 0,0 -11.19413,5.00163 -18.81567,14.76672 -7.62152,9.76509 -45.9978,22.8866 -70.97551,24.53181 -40.42545,2.66272 -113.13213,-21.43556 -119.08645,-24.29364 -6.64415,4.38507 -17.8621,14.39178 -23.57912,24.05546 -9.79581,16.55824 -9.52691,14.76673 -16.6721,55.25612 -24.76998,-42.87112 -20.3718,-38.29905 -25.96085,-59.06688 -2.22143,-8.2544 -2.85807,-25.4845 -2.85807,-25.4845 -15.95758,21.67373 -39.06035,56.44697 -45.49102,92.1729 -20.95922,-52.15986 -7.85971,-137.90209 -7.85971,-137.90209 0,0 -27.92282,11.67415 -60.49591,49.30178 -2.6557,-48.96108 -1.66721,-73.11908 40.48939,-102.65252 -36.31986,4.57082 -43.45329,3.06213 -71.69004,-8.09787 41.1548,-21.46956 54.03505,-31.40101 54.5114,-58.31454 -25.72268,-13.57586 -35.69574,-21.47338 -35.69574,-21.47338 0,0 28.11189,-0.59348 50.25447,-21.91191 10.95597,-21.43556 20.7343,-58.51619 32.62969,-87.171275 8.19971,-19.75251 19.29201,-52.398036 26.67537,-58.352358 9.28874,11.432299 39.99454,97.913583 39.99454,97.913583 z"
         id="path2-5" />
      <path
         id="path4"
         style="display:inline;fill:#383737;fill-opacity:1;stroke-width:1.15728"
         d="m 527.99004,-72.88829 c -7.38336,5.954323 -18.47651,38.59974 -26.67622,58.35225 -10.22953,24.64216 -18.89124,55.51577 -28.0844,77.31176 -0.72642,13.2167 -0.71282,26.90811 -16.81297,36.45148 0,0 7.89094,16.65913 28.59365,20.59998 -1.19654,21.70602 -19.25073,35.49555 -29.84691,43.97249 19.70218,7.07884 43.26647,-4.20795 43.26647,-4.20795 -22.56705,27.40285 -24.17857,65.01566 -24.17857,65.01566 0,0 30.10918,-39.66892 47.2835,-38.68753 -10.22853,23.54846 -10.74649,37.61312 -13.43304,67.16521 22.02974,-22.56706 54.65211,-17.77736 54.65211,-17.77736 0,0 -5.3731,45.1345 -3.76116,64.4777 25.2536,-24.7163 49.43079,-21.49105 49.43079,-21.49105 0,0 7.19784,4.30902 10.36353,7.02957 1.80036,1.54719 3.75048,3.3501 5.7864,5.3253 22.98165,7.55256 75.92909,22.52572 108.24642,20.39706 24.97771,-1.64521 63.35232,-14.7661 70.97383,-24.53118 7.62155,-9.76509 18.81712,-14.76662 18.81712,-14.76662 0,0 15.55033,-9.01497 30.11189,-17.65531 -5.97042,-18.27688 -1.22236,-33.71856 1.76983,-40.71277 -0.42963,-0.24861 -0.86065,-0.50159 -1.2929,-0.75946 -40.20673,-23.98661 -80.23545,-47.70225 -124.6721,-64.68792 -22.34673,-12.93758 -18.81633,-30.57953 -19.99249,-41.16482 -1.17614,-10.5853 -8.23431,-15.8787 -8.23431,-15.8787 L 673.24908,67.36642 658.548,-32.604985 615.61786,40.31499 C 588.56655,26.20126 567.98403,25.02623 567.98403,25.02623 c 0,0 -30.70526,-86.482221 -39.99399,-97.91452 z m -0.91995,26.633273 c 0,0 26.46754,68.238317 28.2833,74.484107 -12.43798,-3.11439 -34.01592,-0.56498 -58.82239,10.84273 8.41661,-23.78917 30.53909,-85.326837 30.53909,-85.326837 z" />
      <path
         style="fill:none;fill-opacity:1;stroke:#ffffff;stroke-width:3.00893;stroke-dasharray:none;stroke-opacity:1"
         d="m 567.98469,25.02566 c 0,0 20.58251,1.17614 47.63382,15.28987 l 42.92924,-72.920909 14.7018,99.972219 27.0513,23.52288 c 0,0 7.05687,5.29264 8.23301,15.87793 1.17615,10.5853 -2.35228,28.22745 19.99444,41.16504 44.43665,16.98566 84.46452,40.70129 124.67124,64.6879 5.08941,3.03624 9.99722,5.29265 14.70179,9.99722 4.70458,4.70458 10.39729,16.12378 -5.86201,25.91093 -16.25931,9.78716 -39.4293,23.21951 -39.4293,23.21951 0,0 -11.19413,5.00163 -18.81567,14.76672 -7.62152,9.76509 -45.9978,22.8866 -70.97551,24.53181 -40.42545,2.66272 -113.13213,-21.43556 -119.08645,-24.29364 -6.64415,4.38507 -17.8621,14.39178 -23.57912,24.05546 -9.79581,16.55824 -9.52691,14.76673 -16.6721,55.25612 -24.76998,-42.87112 -20.3718,-38.29905 -25.96085,-59.06688 -2.22143,-8.2544 -2.85807,-25.4845 -2.85807,-25.4845 -15.95758,21.67373 -39.06035,56.44697 -45.49102,92.1729 -20.95922,-52.15986 -7.85971,-137.90209 -7.85971,-137.90209 0,0 -27.92282,11.67415 -60.49591,49.30178 -2.6557,-48.96108 -1.66721,-73.11908 40.48939,-102.65252 -36.31986,4.57082 -43.45329,3.06213 -71.69004,-8.09787 41.1548,-21.46956 54.03505,-31.40101 54.5114,-58.31454 -25.72268,-13.57586 -35.69574,-21.47338 -35.69574,-21.47338 0,0 41.04186,-4.90347 50.25447,-21.91191 10.95597,-21.43556 20.7343,-58.51619 32.62969,-87.171275 8.19971,-19.75251 19.29201,-52.398036 26.67537,-58.352358 9.28874,11.432299 39.99454,97.913583 39.99454,97.913583 z"
         id="path6" />
      <path
         style="fill:#ffffff;fill-opacity:1;stroke-width:1.41606"
         d="m 661.79993,101.09252 27.17924,10.76829 -19.50773,14.76962 -25.75195,-18.99288 z"
         id="path3" />
    </g>
  </g>
</svg>
